<mxfile host="app.diagrams.net" modified="2024-02-28T13:15:34.002Z" agent="Mozilla/5.0 (Windows NT 10.0; Win64; x64) AppleWebKit/537.36 (KHTML, like Gecko) Chrome/122.0.0.0 Safari/537.36 Edg/122.0.0.0" etag="CRdaWW98d12yDQIFn6Zi" version="23.1.6" type="device">
  <diagram name="Сторінка-1" id="_XXKR_IUMBMaYtfP8-WY">
    <mxGraphModel dx="2053" dy="1911" grid="1" gridSize="10" guides="1" tooltips="1" connect="1" arrows="1" fold="1" page="1" pageScale="1" pageWidth="827" pageHeight="1169" math="0" shadow="0">
      <root>
        <mxCell id="0" />
        <mxCell id="1" parent="0" />
        <mxCell id="P-L6rQBnKZjLnT-2SMWq-1" value="" style="shape=folder;fontStyle=1;spacingTop=10;tabWidth=40;tabHeight=14;tabPosition=left;html=1;whiteSpace=wrap;" parent="1" vertex="1">
          <mxGeometry x="-90" y="-55" width="770" height="700" as="geometry" />
        </mxCell>
        <mxCell id="greT-Am3jdn_44DYWwTs-17" value="" style="ellipse;whiteSpace=wrap;html=1;align=center;aspect=fixed;fillColor=none;strokeColor=none;resizable=0;perimeter=centerPerimeter;rotatable=0;allowArrows=0;points=[];outlineConnect=1;" parent="1" vertex="1">
          <mxGeometry x="405" y="220" width="10" height="10" as="geometry" />
        </mxCell>
        <mxCell id="greT-Am3jdn_44DYWwTs-21" value="" style="ellipse;whiteSpace=wrap;html=1;align=center;aspect=fixed;fillColor=none;strokeColor=none;resizable=0;perimeter=centerPerimeter;rotatable=0;allowArrows=0;points=[];outlineConnect=1;" parent="1" vertex="1">
          <mxGeometry x="400" y="220" width="10" height="10" as="geometry" />
        </mxCell>
        <mxCell id="P-L6rQBnKZjLnT-2SMWq-2" value="Tutorial" style="shape=folder;fontStyle=1;spacingTop=10;tabWidth=40;tabHeight=14;tabPosition=left;html=1;whiteSpace=wrap;" parent="1" vertex="1">
          <mxGeometry x="520" y="-20" width="130" height="80" as="geometry" />
        </mxCell>
        <mxCell id="P-L6rQBnKZjLnT-2SMWq-3" value="Settings" style="shape=folder;fontStyle=1;spacingTop=10;tabWidth=40;tabHeight=14;tabPosition=left;html=1;whiteSpace=wrap;" parent="1" vertex="1">
          <mxGeometry x="520" y="80" width="130" height="80" as="geometry" />
        </mxCell>
        <mxCell id="P-L6rQBnKZjLnT-2SMWq-6" value="Game" style="shape=folder;fontStyle=1;spacingTop=10;tabWidth=40;tabHeight=14;tabPosition=left;html=1;whiteSpace=wrap;" parent="1" vertex="1">
          <mxGeometry x="460" y="545" width="130" height="80" as="geometry" />
        </mxCell>
        <mxCell id="P-L6rQBnKZjLnT-2SMWq-8" value="Score" style="shape=folder;fontStyle=1;spacingTop=10;tabWidth=40;tabHeight=14;tabPosition=left;html=1;whiteSpace=wrap;" parent="1" vertex="1">
          <mxGeometry x="310" y="545" width="130" height="80" as="geometry" />
        </mxCell>
        <mxCell id="P-L6rQBnKZjLnT-2SMWq-13" value="" style="group" parent="1" vertex="1" connectable="0">
          <mxGeometry x="120" y="340" width="170" height="290" as="geometry" />
        </mxCell>
        <mxCell id="P-L6rQBnKZjLnT-2SMWq-9" value="All_levels" style="shape=folder;fontStyle=1;spacingTop=10;tabWidth=40;tabHeight=14;tabPosition=left;html=1;whiteSpace=wrap;" parent="P-L6rQBnKZjLnT-2SMWq-13" vertex="1">
          <mxGeometry width="170" height="290" as="geometry" />
        </mxCell>
        <mxCell id="P-L6rQBnKZjLnT-2SMWq-10" value="EasyLevel" style="shape=folder;fontStyle=1;spacingTop=10;tabWidth=40;tabHeight=14;tabPosition=left;html=1;whiteSpace=wrap;" parent="P-L6rQBnKZjLnT-2SMWq-13" vertex="1">
          <mxGeometry x="9.444444444444445" y="21.09090909090909" width="75.55555555555556" height="43.93939393939394" as="geometry" />
        </mxCell>
        <mxCell id="P-L6rQBnKZjLnT-2SMWq-11" value="HardLevel" style="shape=folder;fontStyle=1;spacingTop=10;tabWidth=40;tabHeight=14;tabPosition=left;html=1;whiteSpace=wrap;" parent="P-L6rQBnKZjLnT-2SMWq-13" vertex="1">
          <mxGeometry y="246.06060606060606" width="75.55555555555556" height="43.93939393939394" as="geometry" />
        </mxCell>
        <mxCell id="P-L6rQBnKZjLnT-2SMWq-12" value="MediumLevel" style="shape=folder;fontStyle=1;spacingTop=10;tabWidth=40;tabHeight=14;tabPosition=left;html=1;whiteSpace=wrap;" parent="P-L6rQBnKZjLnT-2SMWq-13" vertex="1">
          <mxGeometry y="193.33333333333334" width="75.55555555555556" height="43.93939393939394" as="geometry" />
        </mxCell>
        <mxCell id="P-L6rQBnKZjLnT-2SMWq-14" value="" style="group" parent="1" vertex="1" connectable="0">
          <mxGeometry x="-80" y="340" width="180" height="290" as="geometry" />
        </mxCell>
        <mxCell id="P-L6rQBnKZjLnT-2SMWq-15" value="All_Platforms" style="shape=folder;fontStyle=1;spacingTop=10;tabWidth=40;tabHeight=14;tabPosition=left;html=1;whiteSpace=wrap;" parent="P-L6rQBnKZjLnT-2SMWq-14" vertex="1">
          <mxGeometry width="180" height="290" as="geometry" />
        </mxCell>
        <mxCell id="P-L6rQBnKZjLnT-2SMWq-16" value="Platform" style="shape=folder;fontStyle=1;spacingTop=10;tabWidth=40;tabHeight=14;tabPosition=left;html=1;whiteSpace=wrap;" parent="P-L6rQBnKZjLnT-2SMWq-14" vertex="1">
          <mxGeometry x="10" y="21.09090909090909" width="80" height="43.93939393939394" as="geometry" />
        </mxCell>
        <mxCell id="P-L6rQBnKZjLnT-2SMWq-17" value="MovingPlatform" style="shape=folder;fontStyle=1;spacingTop=10;tabWidth=40;tabHeight=14;tabPosition=left;html=1;whiteSpace=wrap;" parent="P-L6rQBnKZjLnT-2SMWq-14" vertex="1">
          <mxGeometry y="246.06060606060606" width="80" height="43.93939393939394" as="geometry" />
        </mxCell>
        <mxCell id="P-L6rQBnKZjLnT-2SMWq-18" value="WhitePlatform" style="shape=folder;fontStyle=1;spacingTop=10;tabWidth=40;tabHeight=14;tabPosition=left;html=1;whiteSpace=wrap;" parent="P-L6rQBnKZjLnT-2SMWq-14" vertex="1">
          <mxGeometry y="193.33333333333334" width="80" height="43.93939393939394" as="geometry" />
        </mxCell>
        <mxCell id="P-L6rQBnKZjLnT-2SMWq-19" value="ExtremePlatform" style="shape=folder;fontStyle=1;spacingTop=10;tabWidth=40;tabHeight=14;tabPosition=left;html=1;whiteSpace=wrap;" parent="P-L6rQBnKZjLnT-2SMWq-14" vertex="1">
          <mxGeometry x="10" y="75.57575757575758" width="80" height="43.93939393939394" as="geometry" />
        </mxCell>
        <mxCell id="P-L6rQBnKZjLnT-2SMWq-20" value="traps" style="shape=folder;fontStyle=1;spacingTop=10;tabWidth=40;tabHeight=14;tabPosition=left;html=1;whiteSpace=wrap;" parent="1" vertex="1">
          <mxGeometry x="460" y="430" width="130" height="80" as="geometry" />
        </mxCell>
        <mxCell id="P-L6rQBnKZjLnT-2SMWq-21" value="TextureManager" style="shape=folder;fontStyle=1;spacingTop=10;tabWidth=40;tabHeight=14;tabPosition=left;html=1;whiteSpace=wrap;" parent="1" vertex="1">
          <mxGeometry x="310" y="430" width="130" height="80" as="geometry" />
        </mxCell>
        <mxCell id="XgDIwSjwDjJg56UUOOmr-1" value="MainWindow" style="text;html=1;align=center;verticalAlign=middle;resizable=0;points=[];autosize=1;strokeColor=none;fillColor=none;" vertex="1" parent="1">
          <mxGeometry x="-100" y="-60" width="90" height="30" as="geometry" />
        </mxCell>
      </root>
    </mxGraphModel>
  </diagram>
</mxfile>
